<svg width="236" height="206" viewBox="0 0 236 206" fill="none" xmlns="http://www.w3.org/2000/svg">
<g clip-path="url(#clip0)">
<path fill-rule="evenodd" clip-rule="evenodd" d="M214.633 109.827C211.65 99.8761 204.646 92.0874 197.374 84.951C183.22 71.0582 175.607 62.4683 170.562 42.1456C167.595 30.1934 164.575 17.5276 155.165 8.85614C148.313 2.54137 136.521 -2.76416 127.357 1.75772C113.261 10.1717 109.475 27.4386 110.897 42.9001C112.659 62.0635 121.61 73.8797 138.807 80.938C148.497 84.9133 154.938 90.1586 160.198 99.2986C164.405 106.607 166.858 115.759 172.145 122.384C180.05 132.289 189.941 136.691 202.134 135.046C190.714 114.035 177.371 92.8259 161.278 75.1352C159.771 73.3566 150.886 66.5492 152.678 63.5181C154.652 60.1807 163.774 72.7175 163.709 72.6418C168.386 78.0103 172.714 83.7152 176.963 89.4748C176.953 89.4804 176.94 89.4835 176.928 89.4894C181.304 95.3996 185.644 101.397 189.902 107.469C191.624 110.038 193.3 112.639 194.905 115.306C197.259 119.219 200.996 130.325 204.849 132.731C205.673 133.245 206.436 133.533 207.148 133.651C209.777 137.956 212.335 142.295 214.768 146.685C221.121 158.151 226.574 170.257 229.076 183.202C229.807 186.981 229.29 201.114 231.869 203.842C236.584 208.831 235.203 199.223 234.921 196.323C232.579 172.31 223.958 151.852 211.441 131.664C215.286 126.641 215.841 113.859 214.633 109.827Z" fill="#F2F2F2"/>
<path fill-rule="evenodd" clip-rule="evenodd" d="M53.1306 121.43C58.1017 115.573 70.0519 114.579 77.3606 114.971C86.4044 115.456 95.6936 117.658 104.298 120.32C118.471 124.704 132.244 132.706 144.727 140.451C146.231 141.384 164.764 152.529 163.124 154.485C161.498 156.423 143.305 143.184 139.25 140.902C130.597 136.032 122.662 130.272 113.124 127.055C103.249 123.724 92.8047 122.405 82.42 122.496C81.0872 122.508 76.7399 121.579 76.646 123.551C76.5542 125.479 83.7475 124.473 85.0162 124.485C90.2552 124.533 95.5265 125.026 100.691 125.934C110.368 127.635 119.465 131.061 127.753 136.317C125.44 141.694 119.897 144.173 114.081 142.828C109.055 141.664 104.156 138.795 99.2343 137.966C95.8448 137.395 92.4509 137.735 89.164 138.69C80.4942 141.209 75.4939 146.371 65.9615 142.78C58.4887 139.966 45.9912 129.853 53.1306 121.43Z" fill="#F2F2F2"/>
<path fill-rule="evenodd" clip-rule="evenodd" d="M58.7531 66H61.1049C60.9401 63.0154 60.7255 60.0356 60.2212 57.0845C58.3307 46.0223 52.4195 29.7749 39.455 27.9794C38.9767 27.9125 37.2173 27.9012 35.0861 28.0248C34.0761 27.4665 32.9447 27.1289 31.7525 27.0512C20.7145 26.2462 8.38765 35.0557 3.06327 44.2232C-1.22893 51.6147 -0.505844 61.3206 2.14528 69.1734C3.92059 74.4306 7.79519 81.9263 14.2566 81.9994C22.3407 82.0908 22.7305 72.2066 22.8868 66.4283C23.0946 58.7461 24.0758 52.054 30.1948 46.8176C31.6209 45.5978 33.1797 44.5246 34.6202 43.3216C36.8758 41.4388 39.3686 39.511 39.6591 36.396C40.0603 32.0986 37.6082 31.3252 33.8642 32.1236C33.226 32.2595 26.7969 35.1134 27.7489 32.8576C28.0394 32.1686 29.1009 31.6225 30.4406 31.2133C33.9074 30.8404 38.0417 30.4078 39.2307 30.6663C52.058 33.4502 57.0522 51.0278 58.3785 62.1957C58.5287 63.4602 58.6487 64.7291 58.7531 66H58.7531Z" fill="#F2F2F2"/>
</g>
<defs>
<clipPath id="clip0">
<rect width="236" height="206" fill="white"/>
</clipPath>
</defs>
</svg>
