<svg width="100" height="100" viewBox="0 0 100 100" fill="none" xmlns="http://www.w3.org/2000/svg">
<path d="M50 100C40.9505 100 32.5846 97.7702 24.9023 93.3105C17.2201 88.8509 11.1491 82.7799 6.68945 75.0977C2.22982 67.4154 0 59.0495 0 50C0 40.9505 2.22982 32.5846 6.68945 24.9023C11.1491 17.2201 17.2201 11.1491 24.9023 6.68945C32.5846 2.22982 40.9505 0 50 0C57.2917 0 62.2396 0.895182 64.8438 2.68555C67.4479 4.47591 68.75 7.7474 68.75 12.5C68.75 14.5833 68.2617 16.569 67.2852 18.457C66.3086 20.3451 65.2344 21.875 64.0625 23.0469C62.8906 24.2188 61.8164 25.5371 60.8398 27.002C59.8633 28.4668 59.375 29.8828 59.375 31.25C59.375 37.5 62.5 40.625 68.75 40.625C70.1172 40.625 71.5332 40.1367 72.998 39.1602C74.4629 38.1836 75.7812 37.1094 76.9531 35.9375C78.125 34.7656 79.6549 33.6914 81.543 32.7148C83.431 31.7383 85.4167 31.25 87.5 31.25C92.1875 31.25 95.4427 32.5846 97.2656 35.2539C99.0885 37.9232 100 42.8385 100 50C100 56.7708 98.6816 63.2487 96.0449 69.4336C93.4082 75.6185 89.86 80.9408 85.4004 85.4004C80.9408 89.86 75.6185 93.4082 69.4336 96.0449C63.2487 98.6816 56.7708 100 50 100ZM28.125 81.25C30.7292 81.25 32.9427 80.3385 34.7656 78.5156C36.5885 76.6927 37.5 74.4792 37.5 71.875C37.5 69.2708 36.5885 67.0573 34.7656 65.2344C32.9427 63.4115 30.7292 62.5 28.125 62.5C25.5208 62.5 23.3073 63.4115 21.4844 65.2344C19.6615 67.0573 18.75 69.2708 18.75 71.875C18.75 74.4792 19.6615 76.6927 21.4844 78.5156C23.3073 80.3385 25.5208 81.25 28.125 81.25ZM21.875 31.25C19.2708 31.25 17.0573 32.1615 15.2344 33.9844C13.4115 35.8073 12.5 38.0208 12.5 40.625C12.5 43.2292 13.4115 45.4427 15.2344 47.2656C17.0573 49.0885 19.2708 50 21.875 50C24.4792 50 26.6927 49.0885 28.5156 47.2656C30.3385 45.4427 31.25 43.2292 31.25 40.625C31.25 38.0208 30.3385 35.8073 28.5156 33.9844C26.6927 32.1615 24.4792 31.25 21.875 31.25ZM40.625 12.5C38.0208 12.5 35.8073 13.4115 33.9844 15.2344C32.1615 17.0573 31.25 19.2708 31.25 21.875C31.25 24.4792 32.1615 26.6927 33.9844 28.5156C35.8073 30.3385 38.0208 31.25 40.625 31.25C43.2292 31.25 45.4427 30.3385 47.2656 28.5156C49.0885 26.6927 50 24.4792 50 21.875C50 19.2708 49.0885 17.0573 47.2656 15.2344C45.4427 13.4115 43.2292 12.5 40.625 12.5ZM59.375 68.75C56.7708 68.75 54.5573 69.6615 52.7344 71.4844C50.9115 73.3073 50 75.5208 50 78.125C50 80.7292 50.9115 82.9427 52.7344 84.7656C54.5573 86.5885 56.7708 87.5 59.375 87.5C61.9792 87.5 64.1927 86.5885 66.0156 84.7656C67.8385 82.9427 68.75 80.7292 68.75 78.125C68.75 75.5208 67.8385 73.3073 66.0156 71.4844C64.1927 69.6615 61.9792 68.75 59.375 68.75ZM78.125 50C75.5208 50 73.3073 50.9115 71.4844 52.7344C69.6615 54.5573 68.75 56.7708 68.75 59.375C68.75 61.9792 69.6615 64.1927 71.4844 66.0156C73.3073 67.8385 75.5208 68.75 78.125 68.75C80.7292 68.75 82.9427 67.8385 84.7656 66.0156C86.5885 64.1927 87.5 61.9792 87.5 59.375C87.5 56.7708 86.5885 54.5573 84.7656 52.7344C82.9427 50.9115 80.7292 50 78.125 50Z" fill="#5D4381" fill-opacity="0.25"/>
</svg>
