<svg width="60" height="60" viewBox="0 0 60 60" fill="none" xmlns="http://www.w3.org/2000/svg">
<path d="M44.2515 39.1696C51.8586 35.2668 57.6253 32.2928 58.1223 32.0616C59.7124 31.2715 61.3545 29.1803 58.1223 27.5559C57.0788 27.045 51.4602 24.1637 44.2515 20.4479L34.2583 29.8782L44.2515 39.1694V39.1696Z" fill="#FFD900"/>
<path d="M34.2583 29.8783L2.43875 59.8439C3.18563 59.9363 4.02883 59.7513 5.02295 59.2406C7.11008 58.1731 29.2357 46.8828 44.2515 39.1719L34.2583 29.8783Z" fill="#F43249"/>
<path d="M34.2583 29.8782L44.2515 20.4944C44.2515 20.4944 7.26095 1.63136 5.02289 0.517855C4.1797 0.0512122 3.23479 -0.0874009 2.38925 0.0512122L34.2583 29.8782Z" fill="#00EE76"/>
<path d="M34.2585 29.8783L2.38948 0.0512695C1.0961 0.330686 0.00308228 1.39842 0.00308228 3.58207V56.3131C0.00308228 58.3117 0.848857 59.7513 2.43893 59.8901L34.2585 29.8783Z" fill="#00D3FF"/>
</svg>
