<svg width="60" height="60" viewBox="0 0 60 60" fill="none" xmlns="http://www.w3.org/2000/svg">
<path d="M13.14 0H46.86C54.1172 0 60 5.88281 60 13.14V46.86C60 54.1172 54.1172 60 46.86 60H13.14C5.88281 60 0 54.1172 0 46.86V13.14C0 5.88281 5.88281 0 13.14 0Z" fill="url(#paint0_linear)"/>
<path d="M19.2287 43.5492L19.2343 43.5511L17.1828 47.1042C16.434 48.4012 14.7755 48.8456 13.4785 48.0968C12.1817 47.348 11.7371 45.6895 12.4859 44.3925L13.9972 41.775L14.1423 41.5237C14.4012 41.1516 15.0404 40.5089 16.3189 40.6298C16.3189 40.6298 19.3276 40.9563 19.5453 42.5201C19.5453 42.5201 19.5748 43.0345 19.2287 43.5492ZM48.3247 34.4742H41.9276C41.4919 34.4449 41.3019 34.2893 41.2269 34.1988L41.2222 34.1906L34.3744 22.3298L34.3655 22.3357L33.9549 21.747C33.2818 20.7176 32.213 23.3501 32.213 23.3501C30.9369 26.2835 32.3942 29.6184 32.9021 30.6265L42.4135 47.1007C43.1621 48.3975 44.8205 48.8421 46.1178 48.093C47.4146 47.3442 47.8592 45.6858 47.1101 44.3887L44.7319 40.2694C44.6858 40.1695 44.6056 39.8986 45.0933 39.8974H48.3247C49.8223 39.8974 51.0364 38.6834 51.0364 37.1857C51.0364 35.688 49.8223 34.474 48.3247 34.474V34.4742ZM35.8995 38.1605C35.8995 38.1605 36.241 39.8974 34.9198 39.8974H11.2716C9.77397 39.8974 8.55991 38.6834 8.55991 37.1857C8.55991 35.688 9.77397 34.474 11.2716 34.474H17.3513C18.3329 34.4173 18.5654 33.8505 18.5654 33.8505L18.571 33.8534L26.5069 20.1077L26.5046 20.1073C26.6492 19.8417 26.5287 19.5907 26.5079 19.5511L23.8869 15.0115C23.138 13.7147 23.5824 12.056 24.8794 11.3074C26.1765 10.5586 27.8349 11.0027 28.5837 12.2998L29.7992 14.4052L31.0126 12.3035C31.7614 11.0067 33.4198 10.5621 34.7169 11.3112C36.0139 12.06 36.4583 13.7182 35.7094 15.0152L24.6662 34.1426C24.6179 34.2591 24.6031 34.4419 24.9624 34.474H31.5633L31.5647 34.5384C31.5647 34.5384 35.3799 34.5977 35.8995 38.1605Z" fill="white"/>
<defs>
<linearGradient id="paint0_linear" x1="30" y1="0" x2="30" y2="60" gradientUnits="userSpaceOnUse">
<stop stop-color="#17C9FB"/>
<stop offset="1" stop-color="#1A74E8"/>
</linearGradient>
</defs>
</svg>
