<svg width="182" height="182" viewBox="0 0 182 182" fill="none" xmlns="http://www.w3.org/2000/svg">
<path d="M83.6059 91.0007L83.6079 91.0064L83.6123 91.019L83.6194 91.0385L83.6291 91.0648L83.6416 91.0979L83.6571 91.1377L83.6755 91.1843L83.6971 91.2374L83.7219 91.2971L83.75 91.3634L83.7815 91.4362L83.8165 91.5153L83.8551 91.6009L83.8974 91.6928L83.9435 91.7909L83.9935 91.8952L84.0475 92.0056L84.1056 92.122L84.1678 92.2445L84.2343 92.3728L84.3051 92.507L84.3803 92.647L84.46 92.7926L84.5444 92.9438L84.6334 93.1006L84.7271 93.2628L84.8257 93.4304L84.9292 93.6033L85.0376 93.7813L85.1511 93.9645L85.2698 94.1527L85.3936 94.3458L85.5227 94.5437L85.6571 94.7464L85.7969 94.9537L85.9422 95.1655L86.093 95.3818L86.2493 95.6025L86.4113 95.8274L86.579 96.0564L86.7524 96.2895L86.9316 96.5266L87.1167 96.7674L87.3076 97.012L87.5045 97.2602L87.7073 97.5119L87.9162 97.7671L88.1311 98.0255L88.3522 98.2871L88.5794 98.5517L88.8127 98.8193L89.0522 99.0898L89.298 99.3629L89.55 99.6387L89.8083 99.917L90.0729 100.198L90.3438 100.481L90.6211 100.766L90.9047 101.053L91.1947 101.342L91.4911 101.632L91.7938 101.925L92.103 102.219L92.4186 102.514L92.7405 102.81L93.0689 103.108L93.4037 103.407L93.745 103.707L94.0926 104.007L94.4466 104.309L94.8069 104.61L95.1737 104.912L95.5468 105.215L95.9262 105.518L96.312 105.82L96.7041 106.123L97.1024 106.425L97.507 106.728L97.9178 107.029L98.3347 107.331L98.7579 107.631L99.1871 107.931L99.6225 108.229L100.064 108.527L100.511 108.824L100.965 109.119L101.424 109.413L101.889 109.705L102.36 109.995L102.837 110.284L103.319 110.571L103.807 110.856L104.301 111.139L104.8 111.42L105.305 111.698L105.815 111.974L106.33 112.247L106.851 112.517L107.377 112.785L107.908 113.049L108.444 113.311L108.985 113.57L109.531 113.825L110.082 114.077L110.637 114.325L111.197 114.57L111.762 114.811L112.331 115.049L112.905 115.282L113.483 115.512L114.065 115.737L114.651 115.959L115.242 116.176L115.836 116.388L116.434 116.597L117.035 116.8L117.641 116.999L118.249 117.194L118.862 117.383L119.477 117.568L120.096 117.747L120.718 117.922L121.342 118.091L121.97 118.255L122.6 118.414L123.233 118.567L123.869 118.715L124.506 118.858L125.147 118.995L125.789 119.126L126.433 119.251L127.079 119.371L127.727 119.484L128.377 119.592L129.028 119.694L129.68 119.79L130.334 119.879L130.989 119.963L131.645 120.04L132.302 120.111L132.959 120.176L133.617 120.234L134.276 120.286L134.935 120.332L135.594 120.371L136.253 120.403L136.913 120.429L137.572 120.448L138.23 120.461L138.889 120.467L139.546 120.467L140.203 120.459L140.859 120.445L141.514 120.425L142.168 120.397L142.821 120.363L143.472 120.322L144.121 120.274L144.769 120.219L145.415 120.157L146.059 120.089L146.701 120.014L147.341 119.931L147.978 119.842L148.613 119.747L149.245 119.644L149.874 119.535L150.5 119.418L151.124 119.295L151.744 119.165L152.36 119.029L152.973 118.885L153.583 118.735L154.188 118.578L154.79 118.414L155.388 118.244L155.981 118.067L156.571 117.884L157.155 117.694L157.736 117.497L158.311 117.294L158.882 117.084L159.448 116.868L160.008 116.645L160.564 116.417L161.114 116.181L161.658 115.94L162.197 115.693L162.731 115.439L163.258 115.179L163.78 114.913L164.295 114.641L164.804 114.364L165.307 114.08L165.804 113.79L166.294 113.495L166.777 113.195L167.253 112.888L167.723 112.576L168.186 112.259L168.641 111.936L169.09 111.608L169.531 111.275L169.964 110.936L170.391 110.593L170.809 110.244L171.22 109.891L171.623 109.533L172.018 109.17L172.405 108.803L172.784 108.431L173.155 108.054L173.518 107.673L173.872 107.288L174.218 106.899L174.556 106.505L174.885 106.108L175.205 105.707L175.516 105.302L175.819 104.893L176.113 104.481L176.397 104.065L176.673 103.646L176.94 103.224L177.197 102.798L177.446 102.37L177.685 101.938L177.915 101.504L178.135 101.067L178.346 100.627L178.548 100.185L178.74 99.7408L178.922 99.2941L179.095 98.8452L179.258 98.3943L179.411 97.9415L179.555 97.4869L179.689 97.0306L179.813 96.5728L179.928 96.1135L180.032 95.6529L180.127 95.1911L180.211 94.7282L180.286 94.2643L180.351 93.7996L180.406 93.3342L180.451 92.8681L180.486 92.4016L180.511 91.9347L180.526 91.4676L180.531 91.0003L180.531 90.8722L180.523 90.405L180.505 89.9379L180.477 89.4711L180.44 89.0047L180.392 88.5388L180.334 88.0736L180.267 87.6091L180.189 87.1454L180.102 86.6828L180.004 86.2213L179.897 85.7611L179.78 85.3022L179.653 84.8448L179.517 84.3889L179.37 83.9348L179.214 83.4825L179.048 83.0322L178.873 82.5839L178.688 82.1378L178.493 81.694L178.289 81.2525L178.076 80.8137L177.853 80.3774L177.62 79.9439L177.379 79.5132L177.128 79.0855L176.868 78.6609L176.598 78.2394L176.32 77.8212L176.033 77.4064L175.737 76.9952L175.432 76.5875L175.118 76.1835L174.795 75.7833L174.464 75.387L174.124 74.9948L173.776 74.6066L173.419 74.2226L173.054 73.8429L172.681 73.4676L172.3 73.0968L171.911 72.7306L171.513 72.369L171.108 72.0121L170.695 71.6601L170.275 71.313L169.846 70.971L169.411 70.6339L168.967 70.3021L168.517 69.9755L168.06 69.6542L167.595 69.3384L167.123 69.0279L166.645 68.7231L166.16 68.4238L165.668 68.1302L165.17 67.8424L164.665 67.5604L164.154 67.2842L163.637 67.014L163.114 66.7498L162.585 66.4917L162.05 66.2396L161.51 65.9937L160.963 65.7541L160.412 65.5207L159.855 65.2936L159.293 65.0728L158.726 64.8585L158.154 64.6506L157.577 64.4492L156.996 64.2543L156.41 64.066L155.819 63.8843L155.224 63.7092L154.626 63.5407L154.023 63.3789L153.416 63.2239L152.806 63.0755L152.192 62.9339L151.574 62.7991L150.953 62.6711L150.329 62.5498L149.702 62.4354L149.072 62.3278L148.439 62.227L147.804 62.1331L147.166 62.046L146.526 61.9658L145.883 61.8924L145.238 61.8258L144.592 61.7661L143.944 61.7132L143.294 61.6671L142.642 61.6278L141.989 61.5954L141.335 61.5697L140.679 61.5508L140.023 61.5386L139.366 61.5331L138.708 61.5343L138.05 61.5423L137.391 61.5568L136.732 61.578L136.073 61.6057L135.413 61.64L134.754 61.6808L134.095 61.7281L133.437 61.7818L132.779 61.8419L132.121 61.9083L131.465 61.9811L130.809 62.06L130.155 62.1452L129.501 62.2365L128.849 62.334L128.198 62.4374L127.549 62.5468L126.902 62.6622L126.256 62.7834L125.612 62.9104L124.971 63.0431L124.331 63.1814L123.694 63.3254L123.059 63.4748L122.427 63.6297L121.798 63.79L121.171 63.9555L120.547 64.1263L119.926 64.3022L119.308 64.4831L118.694 64.6691L118.082 64.8599L117.474 65.0554L116.87 65.2557L116.269 65.4607L115.672 65.6701L115.079 65.884L114.49 66.1022L113.905 66.3247L113.324 66.5513L112.747 66.7819L112.175 67.0166L111.607 67.255L111.043 67.4972L110.485 67.7431L109.93 67.9925L109.381 68.2454L108.836 68.5015L108.296 68.7609L107.762 69.0235L107.232 69.289L106.708 69.5574L106.188 69.8286L105.674 70.1024L105.166 70.3789L104.663 70.6577L104.165 70.9389L103.673 71.2223L103.186 71.5078L102.705 71.7953L102.23 72.0846L101.761 72.3757L101.297 72.6684L100.84 72.9626L100.388 73.2582L99.9423 73.5551L99.5025 73.853L99.0689 74.152L98.6413 74.4519L98.2198 74.7526L97.8045 75.0539L97.3954 75.3558L96.9926 75.658L96.596 75.9606L96.2056 76.2633L95.8216 76.566L95.4439 76.8686L95.0725 77.171L94.7075 77.4731L94.3489 77.7748L93.9966 78.0758L93.6508 78.3761L93.3113 78.6756L92.9783 78.9742L92.6516 79.2716L92.3314 79.5679L92.0176 79.8628L91.7102 80.1563L91.4092 80.4483L91.1146 80.7385L90.8263 81.0269L90.5444 81.3134L90.2689 81.5979L89.9997 81.8802L89.7369 82.1602L89.4803 82.4378L89.23 82.7128L88.9859 82.9853L88.7481 83.2549L88.5165 83.5218L88.291 83.7856L88.0716 84.0463L87.8583 84.3038L87.6511 84.558L87.4499 84.8088L87.2547 85.056L87.0653 85.2996L86.8819 85.5394L86.7043 85.7754L86.5324 86.0074L86.3663 86.2353L86.2059 86.4591L86.0511 86.6785L85.9018 86.8936L85.758 87.1042L85.6197 87.3103L85.4868 87.5117L85.3591 87.7083L85.2367 87.9L85.1195 88.0869L85.0074 88.2686L84.9003 88.4453L84.7982 88.6167L84.7009 88.7828L84.6085 88.9435L84.5208 89.0988L84.4377 89.2485L84.3592 89.3926L84.2852 89.531L84.2156 89.6636L84.1503 89.7903L84.0892 89.9111L84.0323 90.0259L83.9794 90.1347L83.9305 90.2373L83.8854 90.3337L83.8442 90.4238L83.8065 90.5076L83.7725 90.5851L83.7419 90.656L83.7148 90.7205L83.6909 90.7785L83.6702 90.8298L83.6526 90.8745L83.6379 90.9124L83.6262 90.9437L83.6172 90.9681L83.6108 90.9857L83.6068 90.9972M83.6059 91.0007L83.6063 91.0019L83.6089 91.0101L83.6138 91.0252L83.6206 91.0474L83.6294 91.0767L83.6401 91.113L83.6524 91.1564L83.6664 91.2069L83.6818 91.2646L83.6987 91.3295L83.7168 91.4015L83.736 91.4807L83.7563 91.567L83.7775 91.6606L83.7996 91.7614L83.8223 91.8694L83.8456 91.9846L83.8694 92.107L83.8935 92.2366L83.9179 92.3734L83.9424 92.5174L83.9669 92.6686L83.9913 92.8269L84.0155 92.9924L84.0394 93.165L84.0628 93.3447L84.0856 93.5315L84.1078 93.7254L84.1292 93.9263L84.1496 94.1343L84.1691 94.3492L84.1874 94.5711L84.2045 94.7998L84.2203 95.0355L84.2345 95.278L84.2473 95.5273L84.2583 95.7833L84.2675 96.0461L84.2749 96.3155L84.2802 96.5915L84.2835 96.8741L84.2845 97.1632L84.2832 97.4588L84.2795 97.7607L84.2732 98.069L84.2643 98.3835L84.2527 98.7043L84.2383 99.0312L84.2209 99.3641L84.2005 99.7031L84.1769 100.048L84.1502 100.399L84.1201 100.755L84.0866 101.118L84.0496 101.485L84.009 101.859L83.9648 102.238L83.9167 102.622L83.8648 103.011L83.809 103.406L83.7491 103.806L83.6852 104.211L83.617 104.621L83.5446 105.035L83.4678 105.455L83.3866 105.879L83.3008 106.307L83.2105 106.74L83.1156 107.178L83.016 107.619L82.9115 108.065L82.8023 108.515L82.6881 108.969L82.5689 109.426L82.4447 109.887L82.3154 110.352L82.1809 110.82L82.0413 111.292L81.8963 111.767L81.7461 112.245L81.5905 112.726L81.4294 113.21L81.2629 113.696L81.091 114.185L80.9134 114.677L80.7303 115.172L80.5415 115.668L80.3471 116.167L80.147 116.668L79.9412 117.17L79.7296 117.675L79.5123 118.181L79.2891 118.688L79.0601 119.198L78.8252 119.708L78.5845 120.219L78.3379 120.732L78.0854 121.245L77.827 121.759L77.5626 122.274L77.2923 122.789L77.0161 123.305L76.7339 123.821L76.4457 124.337L76.1517 124.853L75.8517 125.369L75.5457 125.884L75.2338 126.399L74.916 126.913L74.5922 127.427L74.2626 127.94L73.9271 128.452L73.5857 128.963L73.2385 129.473L72.8855 129.981L72.5266 130.488L72.162 130.993L71.7917 131.496L71.4156 131.998L71.0339 132.498L70.6465 132.995L70.2535 133.49L69.8549 133.983L69.4508 134.473L69.0413 134.96L68.6263 135.445L68.2059 135.927L67.7802 136.406L67.3492 136.881L66.9129 137.354L66.4715 137.823L66.025 138.288L65.5734 138.75L65.1169 139.207L64.6554 139.661L64.189 140.111L63.7178 140.557L63.242 140.999L62.7614 141.436L62.2763 141.869L61.7867 142.297L61.2927 142.72L60.7943 143.139L60.2917 143.552L59.7848 143.961L59.2739 144.364L58.759 144.762L58.2401 145.155L57.7174 145.542L57.191 145.924L56.6609 146.3L56.1273 146.67L55.5902 147.034L55.0498 147.393L54.5061 147.745L53.9592 148.091L53.4093 148.431L52.8564 148.765L52.3007 149.092L51.7422 149.413L51.1811 149.727L50.6175 150.034L50.0514 150.334L49.4831 150.628L48.9126 150.915L48.34 151.195L47.7654 151.467L47.189 151.733L46.6108 151.991L46.0311 152.242L45.4499 152.486L44.8673 152.722L44.2834 152.951L43.6984 153.173L43.1124 153.386L42.5256 153.592L41.938 153.791L41.3497 153.981L40.761 154.164L40.1718 154.339L39.5825 154.506L38.993 154.665L38.4035 154.816L37.8141 154.959L37.2251 155.094L36.6364 155.221L36.0482 155.339L35.4607 155.45L34.874 155.552L34.2882 155.646L33.7035 155.732L33.1199 155.81L32.5377 155.879L31.9569 155.94L31.3777 155.993L30.8002 156.037L30.2246 156.073L29.6509 156.101L29.0793 156.12L28.51 156.131L27.9431 156.134L27.3787 156.128L26.8169 156.114L26.2578 156.091L25.7017 156.06L25.1486 156.021L24.5987 155.974L24.0521 155.918L23.5089 155.854L22.9692 155.781L22.4332 155.7L21.9011 155.611L21.3728 155.514L20.8486 155.409L20.3287 155.295L19.813 155.173L19.3017 155.044L18.7951 154.906L18.2931 154.76L17.7959 154.606L17.3036 154.444L16.8164 154.274L16.3344 154.097L15.8576 153.911L15.3862 153.718L14.9204 153.517L14.4602 153.309L14.0057 153.092L13.5571 152.869L13.1145 152.638L12.6779 152.399L12.2475 152.153L11.8235 151.9L11.4058 151.639L10.9946 151.371L10.59 151.097L10.1922 150.815L9.80114 150.526L9.41701 150.231L9.03988 149.928L8.66985 149.619L8.30702 149.304L7.95147 148.981L7.6033 148.653L7.2626 148.318L6.92945 147.976L6.60393 147.629L6.28615 147.275L5.97616 146.915L5.67406 146.55L5.37992 146.178L5.09381 145.801L4.81582 145.418L4.54601 145.03L4.28446 144.636L4.03123 144.237L3.78638 143.833L3.54999 143.423L3.32212 143.009L3.10282 142.59L2.89216 142.165L2.69018 141.737L2.49695 141.303L2.31251 140.865L2.13692 140.423L1.97022 139.977L1.81246 139.526L1.66368 139.071L1.52392 138.613L1.39323 138.15L1.27162 137.684L1.15915 137.215L1.05585 136.742L0.961731 136.265L0.876835 135.786L0.801184 135.303L0.734801 134.818L0.677707 134.329L0.629918 133.838L0.591452 133.344L0.562321 132.848L0.542536 132.35L0.532108 131.849L0.531041 131.346L0.539341 130.841L0.557009 130.334L0.584044 129.826L0.620444 129.316L0.666204 128.804L0.721315 128.292L0.785769 127.778L0.859552 127.262L0.94265 126.746L1.03505 126.229L1.13672 125.711L1.24765 125.193L1.36782 124.674L1.49719 124.155L1.63574 123.635L1.78344 123.116L1.94026 122.596L2.10615 122.077L2.28108 121.558L2.46502 121.039L2.65791 120.521L2.85972 120.003L3.07039 119.486L3.28989 118.97L3.51815 118.454L3.75513 117.94L4.00076 117.428L4.255 116.916L4.51777 116.406L4.78903 115.897L5.0687 115.39L5.35672 114.885L5.65302 114.382L5.95753 113.881L6.27017 113.381L6.59088 112.884L6.91958 112.39L7.25619 111.898L7.60062 111.408L7.9528 110.921L8.31264 110.437L8.68005 109.955L9.05496 109.477L9.43726 109.001L9.82687 108.529L10.2237 108.06L10.6276 107.594L11.0386 107.132L11.4565 106.673L11.8812 106.218L12.3126 105.766L12.7506 105.319L13.1952 104.875L13.6461 104.435L14.1034 103.999L14.5668 103.567L15.0364 103.14L15.5118 102.717L15.9932 102.298L16.4802 101.883L16.9729 101.474L17.4711 101.068L17.9747 100.667L18.4835 100.272L18.9974 99.8803L19.5164 99.4939L20.0403 99.1125L20.5689 98.736L21.1022 98.3645L21.64 97.9982L22.1821 97.6369L22.7286 97.2809L23.2791 96.9301L23.8337 96.5845L24.3921 96.2444L24.9542 95.9096L25.52 95.5802L26.0892 95.2563L26.6617 94.9379L27.2375 94.625L27.8163 94.3177L28.398 94.016L28.9825 93.72L29.5696 93.4296L30.1593 93.1449L30.7513 92.866L31.3456 92.5928L31.9419 92.3253L32.5403 92.0636L33.1404 91.8078L33.7422 91.5577L34.3455 91.3134L34.9503 91.075L35.5563 90.8425L36.1634 90.6157L36.7715 90.3948L37.3804 90.1798L37.99 89.9706L38.6002 89.7673L39.2108 89.5698L39.8216 89.3781L40.4326 89.1922L41.0436 89.0122L41.6545 88.838L42.2651 88.6695L42.8753 88.5068L43.4849 88.3499L44.0938 88.1987L44.7019 88.0531L45.309 87.9133L45.9151 87.7791L46.5199 87.6505L47.1233 87.5275L47.7252 87.41L48.3256 87.2981L48.9241 87.1916L49.5207 87.0906L50.1153 86.995L50.7078 86.9047L51.298 86.8197L51.8858 86.74L52.471 86.6655L53.0536 86.5961L53.6333 86.5318L54.2102 86.4726L54.7841 86.4184L55.3547 86.3691L55.9222 86.3247L56.4862 86.2851L57.0467 86.2502L57.6036 86.22L58.1568 86.1944L58.7061 86.1734L59.2515 86.1568L59.7927 86.1447L60.3299 86.1368L60.8627 86.1333L61.3911 86.1338L61.915 86.1385L62.4344 86.1472L62.949 86.1598L63.4588 86.1763L63.9638 86.1966L64.4637 86.2205L64.9586 86.248L65.4483 86.279L65.9327 86.3135L66.4118 86.3512L66.8854 86.3922L67.3535 86.4364L67.816 86.4835L68.2728 86.5337L68.7238 86.5866L69.169 86.6423L69.6082 86.7007L70.0415 86.7617L70.4687 86.8251L70.8897 86.8908L71.3046 86.9588L71.7131 87.0289L72.1154 87.1011L72.5112 87.1752L72.9006 87.2512L73.2835 87.3288L73.6598 87.4081L74.0295 87.4889L74.3926 87.5711L74.7489 87.6545L75.0985 87.7392L75.4413 87.8249L75.7772 87.9116L76.1062 87.9991L76.4283 88.0874L76.7435 88.1763L77.0517 88.2657L77.3528 88.3554L77.6469 88.4455L77.934 88.5358L78.2139 88.6261L78.4867 88.7163L78.7524 88.8064L79.011 88.8962L79.2623 88.9855L79.5065 89.0744L79.7435 89.1627L79.9733 89.2502L80.196 89.3369L80.4114 89.4225L80.6196 89.5072L80.8206 89.5906L81.0144 89.6727L81.201 89.7534L81.3804 89.8326L81.5527 89.9101L81.7178 89.9859L81.8757 90.0598L82.0266 90.1317L82.1703 90.2016L82.3069 90.2692L82.4365 90.3346L82.5591 90.3976L82.6746 90.458L82.7832 90.5158L82.8848 90.5709L82.9796 90.6231L83.0674 90.6724L83.1485 90.7187L83.2227 90.7618L83.2903 90.8017L83.3511 90.8382L83.4052 90.8713L83.4528 90.9009L83.4938 90.9268L83.5284 90.9489L83.5565 90.9672L83.5782 90.9816L83.5936 90.992M83.6059 91.0007L83.6028 90.9983L83.5936 90.992M83.6059 91.0007L83.6073 91.0003L83.6159 91.0002L83.6321 91L83.6558 90.9994L83.6871 90.9985L83.726 90.9971L83.7723 90.995L83.8262 90.9922L83.8876 90.9886L83.9565 90.984L84.0329 90.9784L84.1167 90.9716L84.2079 90.9636L84.3065 90.9542L84.4125 90.9433L84.5258 90.9308L84.6463 90.9167L84.7742 90.9007L84.9092 90.8829L85.0514 90.863L85.2008 90.8411L85.3572 90.8169L85.5207 90.7904L85.6911 90.7616L85.8685 90.7302L86.0527 90.6962L86.2438 90.6595L86.4417 90.62L86.6462 90.5777L86.8574 90.5323L87.0752 90.4838L87.2995 90.4322L87.5302 90.3773L87.7673 90.319L88.0107 90.2573L88.2603 90.1921L88.516 90.1232L88.7778 90.0506L89.0457 89.9742L89.3194 89.894L89.5989 89.8098L89.8842 89.7215L90.1751 89.6291L90.4716 89.5326L90.7735 89.4317L91.0808 89.3265L91.3934 89.2169L91.7112 89.1028L92.0341 88.9841L92.3619 88.8608L92.6947 88.7328L93.0322 88.6001L93.3745 88.4625L93.7212 88.32L94.0725 88.1726L94.4281 88.0202L94.788 87.8627L95.152 87.7001L95.5201 87.5323L95.8921 87.3593L96.2679 87.181L96.6473 86.9974L97.0304 86.8085L97.4169 86.6141L97.8067 86.4143L98.1997 86.209L98.5959 85.9981L98.995 85.7817L99.3969 85.5597L99.8016 85.3321L100.209 85.0988L100.619 84.8598L101.031 84.6151L101.445 84.3647L101.862 84.1085L102.28 83.8465L102.7 83.5787L103.122 83.3051L103.546 83.0256L103.971 82.7404L104.397 82.4492L104.824 82.1523L105.253 81.8494L105.682 81.5407L106.113 81.2261L106.544 80.9057L106.975 80.5793L107.407 80.2472L107.839 79.9092L108.271 79.5653L108.703 79.2156L109.135 78.8601L109.567 78.4988L109.999 78.1317L110.429 77.7588L110.86 77.3802L111.289 76.9959L111.717 76.6059L112.145 76.2102L112.571 75.8089L112.995 75.402L113.419 74.9896L113.84 74.5716L114.26 74.1481L114.678 73.7192L115.095 73.2849L115.509 72.8452L115.92 72.4003L116.33 71.95L116.736 71.4946L117.141 71.034L117.542 70.5683L117.941 70.0976L118.336 69.6218L118.729 69.1412L119.118 68.6557L119.503 68.1654L119.886 67.6704L120.264 67.1707L120.639 66.6664L121.01 66.1576L121.377 65.6444L121.74 65.1268L122.099 64.605L122.453 64.0789L122.804 63.5487L123.149 63.0145L123.49 62.4763L123.826 61.9342L124.157 61.3884L124.483 60.8388L124.805 60.2857L125.121 59.7291L125.431 59.169L125.737 58.6056L126.037 58.039L126.331 57.4693L126.62 56.8966L126.903 56.321L127.18 55.7425L127.451 55.1613L127.716 54.5776L127.975 53.9913L128.228 53.4026L128.475 52.8117L128.715 52.2186L128.949 51.6235L129.176 51.0264L129.397 50.4275L129.611 49.8268L129.818 49.2246L130.018 48.6209L130.212 48.0158L130.399 47.4095L130.579 46.8021L130.751 46.1937L130.917 45.5844L131.075 44.9744L131.226 44.3637L131.37 43.7525L131.507 43.141L131.636 42.5292L131.758 41.9172L131.872 41.3053L131.979 40.6935L132.079 40.0819L132.17 39.4708L132.254 38.8601L132.331 38.2501L132.4 37.6408L132.461 37.0325L132.514 36.4252L132.559 35.819L132.597 35.2142L132.627 34.6107L132.649 34.0088L132.664 33.4086L132.67 32.8103L132.669 32.2138L132.659 31.6195L132.642 31.0273L132.617 30.4375L132.584 29.8502L132.544 29.2655L132.495 28.6835L132.439 28.1043L132.374 27.5282L132.302 26.9552L132.222 26.3854L132.134 25.819L132.038 25.2562L131.935 24.6969L131.824 24.1414L131.705 23.5899L131.578 23.0423L131.443 22.4989L131.301 21.9597L131.152 21.425L130.994 20.8947L130.829 20.3691L130.657 19.8482L130.477 19.3323L130.29 18.8213L130.095 18.3155L129.893 17.8148L129.684 17.3196L129.467 16.8298L129.243 16.3456L129.012 15.8671L128.774 15.3944L128.529 14.9277L128.277 14.4669L128.018 14.0124L127.753 13.564L127.48 13.1221L127.201 12.6866L126.915 12.2576L126.623 11.8354L126.324 11.4199L126.019 11.0113L125.707 10.6097L125.39 10.2151L125.066 9.82767L124.736 9.44752L124.4 9.07471L124.058 8.70935L123.71 8.35151L123.357 8.00129L122.997 7.65877L122.633 7.32403L122.263 6.99716L121.887 6.67823L121.507 6.36733L121.121 6.06453L120.73 5.7699L120.334 5.48352L119.933 5.20546L119.528 4.93579L119.118 4.67457L118.703 4.42187L118.284 4.17775L117.861 3.94228L117.433 3.71551L117.002 3.49749L116.566 3.2883L116.126 3.08796L115.683 2.89655L115.236 2.7141L114.786 2.54067L114.332 2.37629L113.875 2.22101L113.414 2.07488L112.951 1.93791L112.485 1.81017L112.016 1.69166L111.544 1.58244L111.069 1.48252L110.593 1.39194L110.114 1.31071L109.632 1.23886L109.149 1.17642L108.663 1.12339L108.176 1.0798L107.687 1.04565L107.197 1.02097L106.705 1.00575L106.212 1L105.717 1.00373L105.222 1.01694L104.726 1.03963L104.228 1.0718L103.73 1.11344L103.232 1.16454L102.733 1.2251L102.234 1.2951L101.734 1.37453L101.235 1.46338L100.735 1.56162L100.236 1.66923L99.7374 1.78619L99.2389 1.91248L98.7411 2.04806L98.2439 2.19291L97.7475 2.347L97.2521 2.51029L96.7577 2.68274L96.2646 2.86431L95.7727 3.05498L95.2823 3.25468L94.7934 3.46338L94.3061 3.68102L93.8207 3.90757L93.3372 4.14297L92.8557 4.38715L92.3763 4.64008L91.8992 4.90168L91.4245 5.17191L90.9522 5.45069L90.4826 5.73796L90.0156 6.03367L89.5515 6.33773L89.0903 6.65007L88.6321 6.97064L88.1771 7.29935L87.7253 7.63612L87.2769 7.98088L86.8319 8.33356L86.3905 8.69405L85.9527 9.0623L85.5187 9.4382L85.0886 9.82167L84.6624 10.2126L84.2403 10.611L83.8223 11.0166L83.4086 11.4295L82.9992 11.8494L82.5942 12.2764L82.1937 12.7103L81.7978 13.151L81.4065 13.5984L81.02 14.0525L80.6384 14.513L80.2617 14.98L79.8899 15.4532L79.5233 15.9326L79.1617 16.4181L78.8054 16.9095L78.4544 17.4068L78.1087 17.9098L77.7685 18.4185L77.4337 18.9326L77.1045 19.4521L76.7809 19.9769L76.463 20.5069L76.1507 21.0418L75.8443 21.5817L75.5437 22.1263L75.249 22.6756L74.9602 23.2295L74.6773 23.7877L74.4005 24.3502L74.1298 24.9168L73.8652 25.4875L73.6067 26.0621L73.3544 26.6404L73.1083 27.2224L72.8684 27.8079L72.6348 28.3967L72.4076 28.9888L72.1866 29.584L71.972 30.1822L71.7638 30.7832L71.562 31.3869L71.3665 31.9932L71.1775 32.6019L70.995 33.2129L70.8189 33.8261L70.6492 34.4413L70.486 35.0585L70.3292 35.6773L70.1789 36.2979L70.0351 36.9199L69.8977 37.5433L69.7668 38.1678L69.6423 38.7935L69.5243 39.4202L69.4127 40.0476L69.3075 40.6757L69.2087 41.3044L69.1162 41.9335L69.0302 42.5629L68.9504 43.1924L68.877 43.8219L68.8098 44.4513L68.7489 45.0804L68.6942 45.7092L68.6457 46.3374L68.6033 46.965L68.5671 47.5919L68.5369 48.2178L68.5127 48.8427L68.4946 49.4664L68.4823 50.0888L68.476 50.7098L68.4755 51.3292L68.4808 51.947L68.4918 52.563L68.5085 53.1771L68.5308 53.7891L68.5587 54.399L68.5921 55.0066L68.6309 55.6118L68.6751 56.2145L68.7246 56.8146L68.7793 57.4119L68.8392 58.0064L68.9042 58.5978L68.9741 59.1862L69.0491 59.7714L69.1288 60.3533L69.2134 60.9318L69.3026 61.5067L69.3965 62.078L69.4949 62.6456L69.5977 63.2094L69.7049 63.7692L69.8164 64.325L69.932 64.8767L70.0517 65.4241L70.1754 65.9673L70.303 66.506L70.4344 67.0402L70.5695 67.5698L70.7082 68.0948L70.8504 68.615L70.996 69.1303L71.1449 69.6407L71.2969 70.1461L71.4521 70.6464L71.6103 71.1415L71.7713 71.6314L71.935 72.116L72.1015 72.5952L72.2704 73.0689L72.4418 73.5372L72.6156 73.9998L72.7915 74.4568L72.9695 74.9081L73.1495 75.3536L73.3314 75.7932L73.515 76.227L73.7002 76.6549L73.8869 77.0767L74.0751 77.4926L74.2645 77.9023L74.455 78.3059L74.6466 78.7033L74.8391 79.0946L75.0324 79.4796L75.2264 79.8582L75.4209 80.2306L75.6158 80.5966L75.8111 80.9563L76.0065 81.3095L76.202 81.6563L76.3975 81.9966L76.5927 82.3304L76.7876 82.6578L76.9821 82.9786L77.1761 83.2929L77.3694 83.6007L77.5619 83.9019L77.7534 84.1965L77.9439 84.4846L78.1333 84.7661L78.3213 85.041L78.508 85.3093L78.6931 85.5711L78.8766 85.8263L79.0582 86.0749L79.238 86.317L79.4158 86.5526L79.5915 86.7816L79.7649 87.0042L79.9359 87.2202L80.1045 87.4298L80.2704 87.6329L80.4336 87.8296L80.594 88.0199L80.7515 88.2038L80.9058 88.3814L81.0571 88.5526L81.205 88.7176L81.3495 88.8764L81.4905 89.029L81.6279 89.1754L81.7616 89.3157L81.8914 89.4499L82.0173 89.5781L82.1392 89.7003L82.2569 89.8166L82.3704 89.927L82.4795 90.0316L82.5842 90.1304L82.6843 90.2236L82.7798 90.3111L82.8705 90.393L82.9564 90.4693L83.0374 90.5402L83.1134 90.6058L83.1843 90.666L83.2499 90.7209L83.3103 90.7707L83.3653 90.8154L83.4149 90.855L83.4589 90.8897L83.4973 90.9195L83.5301 90.9445L83.557 90.9647L83.5782 90.9804L83.5936 90.992M83.6059 91.0007L83.6128 91.0004L83.6269 91.0006L83.6486 91.001L83.6778 91.0018L83.7146 91.0031L83.7589 91.005L83.8107 91.0076L83.8701 91.011L83.9369 91.0153L84.0112 91.0206L84.093 91.027L84.1822 91.0347L84.2788 91.0437L84.3827 91.0542L84.494 91.0662L84.6126 91.0799L84.7384 91.0954L84.8715 91.1127L85.0117 91.132L85.1591 91.1533L85.3136 91.1769L85.4751 91.2027L85.6437 91.2309L85.8192 91.2616L86.0016 91.2948L86.1908 91.3308L86.3868 91.3695L86.5895 91.4111L86.7989 91.4556L87.0149 91.5032L87.2374 91.554L87.4663 91.608L87.7017 91.6653L87.9433 91.7261L88.1912 91.7903L88.4453 91.8582L88.7055 91.9297L88.9716 92.0051L89.2438 92.0843L89.5217 92.1674L89.8054 92.2545L90.0948 92.3458L90.3897 92.4412L90.6902 92.5408L90.9961 92.6448L91.3072 92.7532L91.6236 92.8661L91.9451 92.9835L92.2716 93.1055L92.603 93.2322L92.9392 93.3637L93.2802 93.4999L93.6257 93.6411L93.9758 93.7871L94.3302 93.9382L94.689 94.0943L95.0519 94.2554L95.4188 94.4218L95.7897 94.5934L96.1645 94.7702L96.5429 94.9523L96.925 95.1398L97.3106 95.3327L97.6995 95.531L98.0917 95.7348L98.487 95.9441L98.8853 96.159L99.2865 96.3795L99.6904 96.6056L100.097 96.8373L100.506 97.0747L100.918 97.3179L101.331 97.5667L101.747 97.8214L102.165 98.0818L102.585 98.348L103.006 98.62L103.429 98.8978L103.854 99.1815L104.28 99.471L104.707 99.7664L105.135 100.068L105.565 100.375L105.995 100.688L106.425 101.007L106.857 101.331L107.288 101.662L107.721 101.998L108.153 102.341L108.585 102.689L109.017 103.043L109.449 103.402L109.88 103.768L110.311 104.139L110.742 104.516L111.171 104.899L111.6 105.287L112.028 105.681L112.454 106.081L112.879 106.487L113.303 106.897L113.725 107.314L114.145 107.736L114.564 108.163L114.981 108.596L115.395 109.034L115.808 109.478L116.218 109.927L116.625 110.381L117.03 110.84L117.432 111.304L117.832 111.774L118.228 112.248L118.621 112.727L119.011 113.211L119.398 113.7L119.781 114.194L120.161 114.693L120.537 115.196L120.909 115.703L121.277 116.215L121.641 116.731L122.001 117.252L122.357 117.777L122.708 118.306L123.055 118.839L123.397 119.376L123.734 119.917L124.067 120.462L124.395 121.011L124.717 121.563L125.035 122.119L125.347 122.678L125.654 123.24L125.955 123.806L126.251 124.375L126.541 124.947L126.826 125.522L127.104 126.099L127.377 126.68L127.644 127.263L127.905 127.848L128.159 128.436L128.408 129.027L128.65 129.619L128.885 130.214L129.114 130.81L129.337 131.409L129.553 132.009L129.762 132.611L129.964 133.214L130.16 133.819L130.348 134.425L130.53 135.032L130.705 135.64L130.872 136.249L131.033 136.859L131.186 137.469L131.332 138.081L131.47 138.692L131.602 139.304L131.725 139.916L131.842 140.528L131.951 141.139L132.052 141.751L132.146 142.362L132.232 142.973L132.311 143.583L132.381 144.193L132.445 144.801L132.5 145.409L132.548 146.016L132.588 146.621L132.62 147.225L132.644 147.827L132.661 148.428L132.669 149.027L132.67 149.623L132.663 150.218L132.648 150.811L132.625 151.402L132.594 151.99L132.556 152.575L132.509 153.158L132.455 153.738L132.393 154.315L132.323 154.889L132.245 155.459L132.159 156.027L132.065 156.591L131.964 157.151L131.855 157.707L131.738 158.26L131.613 158.809L131.481 159.353L131.341 159.894L131.193 160.43L131.038 160.961L130.875 161.488L130.705 162.01L130.527 162.527L130.342 163.04L130.149 163.547L129.949 164.049L129.742 164.546L129.527 165.037L129.305 165.523L129.076 166.003L128.84 166.477L128.597 166.946L128.347 167.408L128.09 167.864L127.826 168.314L127.556 168.758L127.278 169.195L126.994 169.626L126.704 170.05L126.407 170.468L126.103 170.878L125.793 171.282L125.477 171.678L125.155 172.067L124.827 172.45L124.492 172.824L124.152 173.192L123.806 173.552L123.454 173.904L123.096 174.249L122.733 174.586L122.365 174.915L121.991 175.236L121.611 175.549L121.227 175.854L120.838 176.151L120.443 176.439L120.044 176.72L119.639 176.992L119.231 177.255L118.817 177.51L118.399 177.757L117.977 177.995L117.551 178.224L117.12 178.444L116.686 178.656L116.247 178.859L115.805 179.052L115.359 179.237L114.91 179.413L114.457 179.58L114 179.738L113.541 179.887L113.078 180.026L112.613 180.156L112.144 180.277L111.673 180.389L111.2 180.492L110.724 180.585L110.245 180.669L109.764 180.743L109.282 180.808L108.797 180.864L108.31 180.91L107.822 180.947L107.332 180.974L106.84 180.992L106.347 181L105.853 180.999L105.358 180.988L104.862 180.968L104.365 180.939L103.867 180.9L103.369 180.851L102.87 180.793L102.371 180.726L101.871 180.649L101.372 180.563L100.872 180.467L100.373 180.362L99.8741 180.247L99.3755 180.124L98.8775 179.991L98.3801 179.848L97.8835 179.697L97.3878 179.536L96.8931 179.366L96.3996 179.187L95.9074 178.999L95.4166 178.802L94.9272 178.595L94.4395 178.38L93.9536 178.156L93.4695 177.923L92.9875 177.681L92.5075 177.431L92.0298 177.172L91.5544 176.904L91.0814 176.627L90.611 176.342L90.1433 176.049L89.6784 175.747L89.2164 175.437L88.7574 175.119L88.3015 174.792L87.8488 174.458L87.3994 174.115L86.9535 173.765L86.5111 173.406L86.0724 173.04L85.6373 172.666L85.2061 172.285L84.7789 171.896L84.3556 171.5L83.9365 171.096L83.5216 170.685L83.111 170.267L82.7047 169.842L82.303 169.41L81.9058 168.971L81.5133 168.526L81.1255 168.073L80.7425 167.614L80.3644 167.149L79.9913 166.678L79.6233 166.2L79.2603 165.716L78.9026 165.226L78.5501 164.731L78.203 164.229L77.8612 163.722L77.5249 163.209L77.1942 162.691L76.869 162.168L76.5495 161.64L76.2358 161.106L75.9277 160.567L75.6255 160.024L75.3292 159.476L75.0387 158.923L74.7543 158.366L74.4758 157.805L74.2034 157.24L73.9371 156.67L73.6769 156.096L73.4229 155.519L73.1751 154.938L72.9336 154.354L72.6982 153.766L72.4692 153.174L72.2466 152.58L72.0302 151.983L71.8202 151.382L71.6167 150.78L71.4195 150.174L71.2287 149.566L71.0444 148.955L70.8665 148.343L70.695 147.728L70.5301 147.112L70.3715 146.493L70.2195 145.873L70.0739 145.251L69.9347 144.628L69.8021 144.004L69.6758 143.379L69.556 142.752L69.4426 142.125L69.3357 141.497L69.2351 140.869L69.1409 140.24L69.0531 139.61L68.9716 138.981L68.8965 138.351L68.8276 137.722L68.765 137.093L68.7086 136.464L68.6584 135.835L68.6143 135.208L68.5764 134.581L68.5446 133.954L68.5188 133.329L68.499 132.705L68.4851 132.082L68.4772 131.461L68.4751 130.841L68.4788 130.223L68.4882 129.606L68.5034 128.992L68.5242 128.379L68.5505 127.769L68.5824 127.16L68.6198 126.554L68.6625 125.951L68.7105 125.35L68.7638 124.752L68.8223 124.157L68.8859 123.565L68.9545 122.975L69.028 122.389L69.1065 121.807L69.1897 121.227L69.2777 120.651L69.3703 120.079L69.4675 119.51L69.5691 118.945L69.6751 118.384L69.7854 117.828L69.8999 117.275L70.0185 116.726L70.1411 116.182L70.2677 115.642L70.398 115.106L70.5321 114.576L70.6698 114.049L70.8111 113.528L70.9557 113.011L71.1037 112.499L71.2549 111.993L71.4093 111.491L71.5666 110.994L71.7268 110.503L71.8899 110.017L72.0556 109.536L72.2239 109.061L72.3946 108.591L72.5677 108.127L72.7431 107.669L72.9205 107.216L73.1 106.769L73.2813 106.327L73.4645 105.892L73.6493 105.462L73.8356 105.039L74.0234 104.621L74.2124 104.21L74.4027 103.805L74.594 103.406L74.7863 103.013L74.9794 102.626L75.1732 102.246L75.3675 101.871L75.5624 101.504L75.7576 101.142L75.9529 100.787L76.1484 100.439L76.3439 100.097L76.5392 99.7611L76.7342 99.4319L76.9289 99.1093L77.123 98.7932L77.3165 98.4837L77.5092 98.1807L77.701 97.8843L77.8918 97.5944L78.0815 97.3111L78.2699 97.0344L78.457 96.7642L78.6425 96.5006L78.8264 96.2436L79.0086 95.9932L79.1889 95.7493L79.3673 95.512L79.5435 95.2811L79.7176 95.0568L79.8893 94.839L80.0585 94.6277L80.2252 94.4228L80.3892 94.2243L80.5503 94.0323L80.7086 93.8466L80.8638 93.6673L81.0159 93.4943L81.1648 93.3276L81.3102 93.1671L81.4522 93.0129L81.5906 92.8648L81.7253 92.7228L81.8562 92.5869L81.9832 92.4571L82.1062 92.3333L82.225 92.2153L82.3397 92.1033L82.45 91.9971L82.5559 91.8967L82.6573 91.802L82.7541 91.713L82.8461 91.6296L82.9334 91.5517L83.0157 91.4793L83.0931 91.4123L83.1653 91.3506L83.2324 91.2942L83.2943 91.2431L83.3508 91.197L83.4018 91.156L83.4474 91.12L83.4874 91.0889L83.5217 91.0625L83.5502 91.041L83.573 91.0241L83.5898 91.0118L83.6007 91.0039L83.6059 91.0007ZM83.6059 91.0007L83.6042 91.0014L83.5968 91.0065L83.5831 91.0158L83.5631 91.0291L83.5367 91.0463L83.504 91.0674L83.4647 91.0923L83.4189 91.1209L83.3666 91.153L83.3076 91.1886L83.2419 91.2275L83.1695 91.2698L83.0903 91.3152L83.0043 91.3637L82.9115 91.4151L82.8118 91.4695L82.7051 91.5265L82.5914 91.5863L82.4708 91.6485L82.3432 91.7132L82.2085 91.7803L82.0667 91.8495L81.9178 91.9209L81.7618 91.9943L81.5986 92.0696L81.4284 92.1466L81.2509 92.2254L81.0662 92.3057L80.8744 92.3874L80.6754 92.4705L80.4691 92.5548L80.2557 92.6402L80.0351 92.7266L79.8072 92.8139L79.5722 92.9019L79.33 92.9907L79.0806 93.0799L78.824 93.1696L78.5603 93.2596L78.2894 93.3498L78.0114 93.4401L77.7263 93.5304L77.4342 93.6205L77.1349 93.7104L76.8287 93.7999L76.5154 93.8889L76.1952 93.9774L75.8681 94.0651L75.534 94.152L75.1931 94.238L74.8454 94.323L74.4909 94.4068L74.1297 94.4893L73.7618 94.5705L73.3873 94.6502L73.0062 94.7283L72.6186 94.8048L72.2245 94.8794L71.824 94.9521L71.4172 95.0228L71.004 95.0914L70.5847 95.1578L70.1592 95.2218L69.7276 95.2834L69.29 95.3425L68.8464 95.399L68.397 95.4527L67.9418 95.5037L67.4808 95.5516L67.0143 95.5966L66.5421 95.6385L66.0646 95.6771L65.5816 95.7125L65.0934 95.7445L64.5999 95.7729L64.1013 95.7979L63.5977 95.8191L63.0892 95.8366L62.5759 95.8503L62.0579 95.8601L61.5352 95.8659L61.008 95.8676L60.4763 95.8652L59.9404 95.8585L59.4002 95.8476L58.856 95.8322L58.3078 95.8124L57.7556 95.7881L57.1997 95.7592L56.6402 95.7256L56.0771 95.6873L55.5106 95.6442L54.9408 95.5962L54.3678 95.5434L53.7918 95.4855L53.2128 95.4227L52.631 95.3547L52.0464 95.2816L51.4594 95.2033L50.8698 95.1198L50.278 95.0309L49.6839 94.9368L49.0878 94.8372L48.4898 94.7323L47.89 94.6218L47.2885 94.5059L46.6854 94.3844L46.081 94.2574L45.4753 94.1247L44.8684 93.9864L44.2606 93.8424L43.6519 93.6928L43.0424 93.5374L42.4324 93.3763L41.8219 93.2094L41.2111 93.0368L40.6001 92.8583L39.9891 92.6741L39.3782 92.484L38.7675 92.2881L38.1572 92.0863L37.5474 91.8788L36.9383 91.6653L36.33 91.446L35.7226 91.2209L35.1163 90.9899L34.5112 90.7531L33.9074 90.5105L33.3052 90.262L32.7046 90.0077L32.1058 89.7476L31.5089 89.4817L30.914 89.2101L30.3214 88.9327L29.731 88.6496L29.1432 88.3608L28.5579 88.0663L27.9754 87.7662L27.3958 87.4604L26.8193 87.1491L26.2458 86.8322L25.6757 86.5098L25.109 86.1819L24.5458 85.8486L23.9864 85.5099L23.4308 85.1658L22.8791 84.8165L22.3315 84.4618L21.7882 84.102L21.2492 83.737L20.7146 83.367L20.1847 82.9918L19.6595 82.6118L19.1392 82.2267L18.6239 81.8368L18.1136 81.4422L17.6086 81.0428L17.1089 80.6387L16.6147 80.23L16.1261 79.8168L15.6432 79.3991L15.1661 78.9771L14.6949 78.5508L14.2298 78.1202L13.7709 77.6855L13.3182 77.2467L12.8719 76.804L12.432 76.3573L11.9988 75.9069L11.5722 75.4527L11.1525 74.9949L10.7396 74.5335L10.3337 74.0687L9.93493 73.6005L9.54334 73.1291L9.15902 72.6545L8.78208 72.1768L8.41261 71.6962L8.05068 71.2127L7.69639 70.7264L7.34983 70.2375L7.01107 69.7459L6.6802 69.252L6.35729 68.7556L6.04242 68.2571L5.73568 67.7564L5.43712 67.2536L5.14682 66.749L4.86486 66.2425L4.59129 65.7344L4.32618 65.2247L4.0696 64.7135L3.8216 64.201L3.58225 63.6872L3.35159 63.1723L3.12969 62.6564L2.91659 62.1396L2.71234 61.6221L2.517 61.1039L2.33061 60.5852L2.1532 60.0661L1.98483 59.5467L1.82552 59.0272L1.67532 58.5076L1.53426 57.9881L1.40237 57.4688L1.27968 56.9498L1.16621 56.4313L1.062 55.9133L0.967054 55.3961L0.881405 54.8797L0.805067 54.3642L0.738055 53.8498L0.680381 53.3366L0.632057 52.8247L0.593091 52.3143L0.563488 51.8054L0.543252 51.2983L0.532385 50.7929L0.530884 50.2895L0.538747 49.7881L0.555967 49.289L0.582537 48.7921L0.618445 48.2977L0.66368 47.8059L0.718226 47.3167L0.782064 46.8303L0.855177 46.3469L0.93754 45.8665L1.02913 45.3893L1.12992 44.9153L1.23988 44.4448L1.35899 43.9778L1.48719 43.5144L1.62447 43.0547L1.77078 42.599L1.92609 42.1472L2.09034 41.6996L2.2635 41.2561L2.44551 40.817L2.63634 40.3824L2.83592 39.9522L3.04421 39.5268L3.26115 39.1061L3.48668 38.6903L3.72074 38.2795L3.96327 37.8738L4.21421 37.4733L4.47349 37.0781L4.74104 36.6882L5.0168 36.3039L5.30068 35.9252L5.59263 35.5522L5.89256 35.185L6.20039 34.8237L6.51605 34.4684L6.83945 34.1191L7.17052 33.7761L7.50916 33.4393L7.85529 33.1088L8.20882 32.7848L8.56967 32.4673L8.93774 32.1564L9.31293 31.8522L9.69515 31.5547L10.0843 31.2641L10.4803 30.9805L10.883 30.7038L11.2924 30.4342L11.7083 30.1717L12.1307 29.9164L12.5593 29.6684L12.9942 29.4278L13.4352 29.1945L13.8822 28.9688L14.335 28.7505L14.7937 28.5399L15.258 28.3369L15.7278 28.1416L16.2031 27.954L16.6837 27.7742L17.1696 27.6023L17.6604 27.4383L18.1563 27.2822L18.657 27.1341L19.1624 26.994L19.6724 26.862L20.1869 26.738L20.7057 26.6222L21.2287 26.5146L21.7559 26.4151L22.287 26.3239L22.8219 26.2408L23.3606 26.1661L23.9028 26.0996L24.4485 26.0415L24.9976 25.9916L25.5498 25.9501L26.1051 25.9169L26.6633 25.8921L27.2244 25.8756L27.7881 25.8675L28.3544 25.8678L28.923 25.8765L29.494 25.8935L30.0671 25.9188L30.6422 25.9526L31.2192 25.9946L31.798 26.0451L32.3783 26.1038L32.9602 26.1709L33.5434 26.2462L34.1278 26.3298L34.7133 26.4217L35.2998 26.5218L35.8871 26.6301L36.4751 26.7466L37.0636 26.8712L37.6526 27.004L38.2419 27.1448L38.8314 27.2936L39.4209 27.4505L40.0103 27.6153L40.5995 27.788L41.1884 27.9686L41.7768 28.1571L42.3646 28.3533L42.9516 28.5572L43.5379 28.7688L44.1232 28.988L44.7073 29.2147L45.2903 29.449L45.8719 29.6907L46.4521 29.9397L47.0307 30.1961L47.6076 30.4597L48.1827 30.7305L48.7558 31.0083L49.3269 31.2932L49.8959 31.585L50.4626 31.8837L51.0268 32.1892L51.5886 32.5014L52.1478 32.8202L52.7043 33.1455L53.258 33.4773L53.8087 33.8155L54.3565 34.16L54.901 34.5106L55.4424 34.8673L55.9804 35.23L56.515 35.5987L57.0461 35.9731L57.5735 36.3532L58.0972 36.739L58.6171 37.1302L59.1331 37.5269L59.6452 37.9288L60.1531 38.336L60.6569 38.7482L61.1565 39.1654L61.6517 39.5874L62.1426 40.0142L62.6289 40.4456L63.1107 40.8816L63.5879 41.322L64.0603 41.7666L64.528 42.2155L64.9908 42.6684L65.4488 43.1252L65.9017 43.5858L66.3496 44.0502L66.7924 44.5181L67.2301 44.9895L67.6626 45.4642L68.0897 45.9421L68.5116 46.4231L68.9281 46.907L69.3391 47.3938L69.7447 47.8832L70.1448 48.3752L70.5393 48.8697L70.9282 49.3665L71.3115 49.8654L71.6891 50.3665L72.0611 50.8694L72.4273 51.3741L72.7877 51.8805L73.1423 52.3884L73.4911 52.8977L73.8341 53.4083L74.1712 53.92L74.5025 54.4327L74.8278 54.9462L75.1473 55.4605L75.4608 55.9754L75.7684 56.4908L76.07 57.0065L76.3657 57.5224L76.6555 58.0383L76.9393 58.5542L77.2172 59.0699L77.4891 59.5853L77.7551 60.1002L78.0151 60.6146L78.2693 61.1282L78.5175 61.6409L78.7598 62.1527L78.9963 62.6634L79.2269 63.1728L79.4517 63.6808L79.6706 64.1874L79.8838 64.6923L80.0912 65.1954L80.2929 65.6967L80.4888 66.196L80.6791 66.6932L80.8638 67.1881L81.0428 67.6806L81.2163 68.1706L81.3843 68.658L81.5469 69.1426L81.704 69.6244L81.8557 70.1033L82.0021 70.579L82.1432 71.0515L82.279 71.5206L82.4098 71.9864L82.5354 72.4485L82.6559 72.907L82.7715 73.3618L82.8821 73.8126L82.9878 74.2594L83.0888 74.7022L83.185 75.1407L83.2765 75.5749L83.3635 76.0047L83.4459 76.43L83.5239 76.8507L83.5976 77.2666L83.6669 77.6778L83.732 78.084L83.793 78.4853L83.8499 78.8815L83.9029 79.2724L83.952 79.6581L83.9973 80.0385L84.0389 80.4134L84.0768 80.7828L84.1113 81.1466L84.1423 81.5047L84.1699 81.8571L84.1943 82.2036L84.2156 82.5442L84.2338 82.8788L84.249 83.2073L84.2614 83.5298L84.2711 83.846L84.278 84.156L84.2824 84.4597L84.2844 84.757L84.284 85.0479L84.2813 85.3323L84.2766 85.6101L84.2698 85.8813L84.261 86.1459L84.2505 86.4038L84.2382 86.655L84.2243 86.8993L84.209 87.1369L84.1922 87.3675L84.1742 87.5913L84.1551 87.8081L84.1349 88.018L84.1137 88.2208L84.0918 88.4167L84.0691 88.6054L84.0458 88.7871L84.0221 88.9616L83.998 89.1291L83.9736 89.2894L83.9491 89.4425L83.9246 89.5884L83.9002 89.7272L83.876 89.8588L83.8521 89.9832L83.8287 90.1004L83.8058 90.2103L83.7835 90.3131L83.7621 90.4086L83.7415 90.497L83.7219 90.5782L83.7035 90.6521L83.6863 90.7189L83.6705 90.7786L83.6561 90.8311L83.6433 90.8765L83.6322 90.9147L83.6229 90.9459L83.6154 90.97L83.61 90.9871L83.6068 90.9972M83.6059 91.0007L83.6068 90.9972" stroke="white"/>
</svg>
