<svg width="180" height="180" viewBox="0 0 180 180" fill="none" xmlns="http://www.w3.org/2000/svg">
<path d="M90 180C73.7109 180 58.6523 175.986 44.8242 167.959C30.9961 159.932 20.0684 149.004 12.041 135.176C4.01367 121.348 0 106.289 0 90C0 73.7109 4.01367 58.6523 12.041 44.8242C20.0684 30.9961 30.9961 20.0684 44.8242 12.041C58.6523 4.01367 73.7109 0 90 0C103.125 0 112.031 1.61133 116.719 4.83398C121.406 8.05664 123.75 13.9453 123.75 22.5C123.75 26.25 122.871 29.8242 121.113 33.2227C119.355 36.6211 117.422 39.375 115.312 41.4844C113.203 43.5938 111.27 45.9668 109.512 48.6035C107.754 51.2402 106.875 53.7891 106.875 56.25C106.875 67.5 112.5 73.125 123.75 73.125C126.211 73.125 128.76 72.2461 131.396 70.4883C134.033 68.7305 136.406 66.7969 138.516 64.6875C140.625 62.5781 143.379 60.6445 146.777 58.8867C150.176 57.1289 153.75 56.25 157.5 56.25C165.938 56.25 171.797 58.6523 175.078 63.457C178.359 68.2617 180 77.1094 180 90C180 102.188 177.627 113.848 172.881 124.98C168.135 136.113 161.748 145.693 153.721 153.721C145.693 161.748 136.113 168.135 124.98 172.881C113.848 177.627 102.188 180 90 180ZM50.625 146.25C55.3125 146.25 59.2969 144.609 62.5781 141.328C65.8594 138.047 67.5 134.062 67.5 129.375C67.5 124.688 65.8594 120.703 62.5781 117.422C59.2969 114.141 55.3125 112.5 50.625 112.5C45.9375 112.5 41.9531 114.141 38.6719 117.422C35.3906 120.703 33.75 124.688 33.75 129.375C33.75 134.062 35.3906 138.047 38.6719 141.328C41.9531 144.609 45.9375 146.25 50.625 146.25ZM39.375 56.25C34.6875 56.25 30.7031 57.8906 27.4219 61.1719C24.1406 64.4531 22.5 68.4375 22.5 73.125C22.5 77.8125 24.1406 81.7969 27.4219 85.0781C30.7031 88.3594 34.6875 90 39.375 90C44.0625 90 48.0469 88.3594 51.3281 85.0781C54.6094 81.7969 56.25 77.8125 56.25 73.125C56.25 68.4375 54.6094 64.4531 51.3281 61.1719C48.0469 57.8906 44.0625 56.25 39.375 56.25ZM73.125 22.5C68.4375 22.5 64.4531 24.1406 61.1719 27.4219C57.8906 30.7031 56.25 34.6875 56.25 39.375C56.25 44.0625 57.8906 48.0469 61.1719 51.3281C64.4531 54.6094 68.4375 56.25 73.125 56.25C77.8125 56.25 81.7969 54.6094 85.0781 51.3281C88.3594 48.0469 90 44.0625 90 39.375C90 34.6875 88.3594 30.7031 85.0781 27.4219C81.7969 24.1406 77.8125 22.5 73.125 22.5ZM106.875 123.75C102.188 123.75 98.2031 125.391 94.9219 128.672C91.6406 131.953 90 135.938 90 140.625C90 145.312 91.6406 149.297 94.9219 152.578C98.2031 155.859 102.188 157.5 106.875 157.5C111.562 157.5 115.547 155.859 118.828 152.578C122.109 149.297 123.75 145.312 123.75 140.625C123.75 135.938 122.109 131.953 118.828 128.672C115.547 125.391 111.562 123.75 106.875 123.75ZM140.625 90C135.938 90 131.953 91.6406 128.672 94.9219C125.391 98.2031 123.75 102.188 123.75 106.875C123.75 111.562 125.391 115.547 128.672 118.828C131.953 122.109 135.938 123.75 140.625 123.75C145.312 123.75 149.297 122.109 152.578 118.828C155.859 115.547 157.5 111.562 157.5 106.875C157.5 102.188 155.859 98.2031 152.578 94.9219C149.297 91.6406 145.312 90 140.625 90Z" fill="white"/>
</svg>
